<svg width="29" height="20" viewBox="0 0 29 20" fill="none" xmlns="http://www.w3.org/2000/svg">
<path d="M8.14584 16.759C7.79752 16.7595 7.46118 16.6319 7.2009 16.4004L0 9.99929L7.60079 3.2424C7.8841 3.00003 8.25121 2.87853 8.62317 2.90402C8.99514 2.9295 9.34224 3.09994 9.58985 3.37869C9.83745 3.65743 9.96578 4.02221 9.94723 4.39458C9.92869 4.76695 9.76475 5.11718 9.49067 5.36994L4.28354 9.99929L9.09078 14.2714C9.30675 14.4631 9.45933 14.7159 9.52824 14.9963C9.59716 15.2766 9.57915 15.5714 9.47662 15.8413C9.37409 16.1112 9.19188 16.3435 8.95419 16.5075C8.7165 16.6714 8.43457 16.7591 8.14584 16.759V16.759ZM20.8755 16.7562L28.4763 9.99929L21.2754 3.59817C20.9933 3.34756 20.6231 3.21928 20.2464 3.24157C19.8697 3.26385 19.5173 3.43487 19.2667 3.717C19.0161 3.99913 18.8878 4.36926 18.9101 4.74597C18.9324 5.12267 19.1034 5.4751 19.3855 5.72571L24.1927 9.99929L18.9856 14.6272C18.7033 14.8778 18.5321 15.2303 18.5097 15.6072C18.4873 15.984 18.6155 16.3543 18.8661 16.6366C19.1167 16.919 19.4692 17.0902 19.846 17.1126C20.2229 17.135 20.5932 17.0068 20.8755 16.7562V16.7562ZM14.2182 18.7727L17.0644 1.69548C17.1008 1.50885 17.0994 1.31681 17.0604 1.13072C17.0213 0.944623 16.9453 0.768245 16.837 0.612002C16.7286 0.455759 16.59 0.322821 16.4294 0.221038C16.2688 0.119255 16.0894 0.0506929 15.9018 0.0194014C15.7143 -0.0118901 15.5223 -0.00527648 15.3374 0.0388518C15.1524 0.08298 14.9782 0.163728 14.8249 0.276326C14.6717 0.388923 14.5426 0.531087 14.4452 0.69442C14.3479 0.857753 14.2842 1.03894 14.2581 1.22728L11.4119 18.3045C11.3755 18.4912 11.3768 18.6832 11.4159 18.8693C11.455 19.0554 11.5309 19.2318 11.6393 19.388C11.7477 19.5442 11.8863 19.6772 12.0469 19.779C12.2075 19.8807 12.3869 19.9493 12.5745 19.9806C12.762 20.0119 12.954 20.0053 13.1389 19.9611C13.3239 19.917 13.4981 19.8363 13.6513 19.7237C13.8046 19.6111 13.9337 19.4689 14.031 19.3056C14.1284 19.1422 14.1921 18.9611 14.2182 18.7727V18.7727Z" fill="white"/>
</svg>
