<svg width="22" height="22" viewBox="0 0 22 22" fill="none" xmlns="http://www.w3.org/2000/svg">
<path fill-rule="evenodd" clip-rule="evenodd" d="M19.1615 2.1005C18.9956 2.03264 18.8179 1.99849 18.6387 2.00005C18.4595 2.00161 18.2824 2.03884 18.1178 2.10957C17.9531 2.18029 17.8042 2.2831 17.6797 2.412L17.6676 2.42439L7.87386 12.2181V14.1261H9.7819L19.5756 4.33244L19.588 4.32026C19.7169 4.19576 19.8197 4.04685 19.8904 3.8822C19.9612 3.71755 19.9984 3.54046 19.9999 3.36127C20.0015 3.18208 19.9674 3.00438 19.8995 2.83852C19.8316 2.67266 19.7314 2.52198 19.6047 2.39527C19.478 2.26856 19.3273 2.16835 19.1615 2.1005ZM18.6213 0.000126468C19.0661 -0.0037383 19.5072 0.0810111 19.9188 0.249429C20.3305 0.417847 20.7044 0.666561 21.0189 0.981059C21.3334 1.29556 21.5822 1.66954 21.7506 2.08119C21.919 2.49283 22.0037 2.9339 21.9999 3.37865C21.996 3.8234 21.9036 4.26293 21.7281 4.67159C21.5538 5.07733 21.301 5.44458 20.9842 5.75222L10.9032 15.8332C10.7157 16.0208 10.4613 16.1261 10.1961 16.1261H6.87386C6.32158 16.1261 5.87386 15.6784 5.87386 15.1261V11.8039C5.87386 11.5387 5.97922 11.2843 6.16675 11.0968L16.2478 1.01578C16.5554 0.699044 16.9227 0.44624 17.3284 0.271939C17.7371 0.0963922 18.1766 0.00399123 18.6213 0.000126468ZM0.981059 3.35948C1.60922 2.73131 2.46119 2.37842 3.34954 2.37842H9.2234C9.77569 2.37842 10.2234 2.82613 10.2234 3.37842C10.2234 3.9307 9.77569 4.37842 9.2234 4.37842H3.34954C2.99162 4.37842 2.64836 4.5206 2.39527 4.77369C2.14218 5.02678 2 5.37004 2 5.72796V18.6505C2 19.0084 2.14218 19.3516 2.39527 19.6047C2.64836 19.8578 2.99162 20 3.34954 20H16.272C16.63 20 16.9732 19.8578 17.2263 19.6047C17.4794 19.3516 17.6216 19.0084 17.6216 18.6505V12.7766C17.6216 12.2243 18.0693 11.7766 18.6216 11.7766C19.1739 11.7766 19.6216 12.2243 19.6216 12.7766V18.6505C19.6216 19.5388 19.2687 20.3908 18.6405 21.0189C18.0124 21.6471 17.1604 22 16.272 22H3.34954C2.46119 22 1.60922 21.6471 0.981059 21.0189C0.352897 20.3908 0 19.5388 0 18.6505V5.72796C0 4.83961 0.352897 3.98764 0.981059 3.35948Z" fill="white"/>
</svg>
