<svg width="100" height="108" viewBox="0 0 100 108" fill="none" xmlns="http://www.w3.org/2000/svg">
<path d="M93.6803 19.0059L82.6766 12.6118L75.4275 8.41107C74.3494 7.7791 72.974 8.00215 72.119 8.89434L65.5019 15.9947L42.7509 40.4185V2.76051C42.7509 0.641554 40.4461 -0.696736 38.5874 0.381331L31.5242 4.43338L6.3197 19.0059C2.41636 21.2364 0 25.4371 0 29.9352V73.0951C0 77.5932 2.41636 81.794 6.3197 84.0245L43.6803 105.586C45.6134 106.701 47.8067 107.259 50 107.259C52.1933 107.259 54.3866 106.701 56.3197 105.586L93.6803 84.0245C97.5836 81.7568 100 77.5932 100 73.0951V29.9352C100 25.3999 97.5836 21.2364 93.6803 19.0059ZM88.4758 73.0951C88.4758 73.504 88.2528 73.8386 87.9182 74.0616L50.5576 95.623C50.2231 95.8088 49.777 95.8088 49.4424 95.623L12.0818 74.0616C11.7472 73.8758 11.5242 73.504 11.5242 73.0951V29.9352C11.5242 29.5263 11.7472 29.1546 12.0818 28.9687L31.5242 17.7419V72.7605H42.7509V53.504C42.7509 51.6453 43.7918 50.2698 45.9108 49.5263C48.0297 48.7828 50.2974 50.0839 52.7138 53.3181L66.6171 72.7233H80.3717L56.5056 40.0839L74.4981 21.1992L87.9182 28.9687C88.2528 29.1546 88.4758 29.5263 88.4758 29.9352V73.0951Z" fill="#00203F"/>
</svg>
